<svg width="136" height="136" viewBox="0 0 136 136" fill="none" xmlns="http://www.w3.org/2000/svg">
<rect width="136" height="136" fill="white"/>
<path d="M65.3898 51.9832C66.0802 51.9832 66.6467 52.0894 67.0893 52.3019C67.5319 52.5143 67.8771 52.8329 68.1249 53.2578C68.3905 53.6827 68.5675 54.2226 68.656 54.8776C68.7445 55.515 68.7888 56.2673 68.7888 57.1348V64.5966H66.1333V56.9755C66.1333 56.4798 66.0979 56.0815 66.0271 55.7805C65.974 55.4796 65.8943 55.2494 65.7881 55.0901C65.6996 54.9308 65.5845 54.8245 65.4429 54.7714C65.319 54.7183 65.1862 54.6918 65.0446 54.6918C64.8853 54.6918 64.7171 54.7095 64.54 54.7449C64.363 54.7626 64.2037 54.8068 64.0621 54.8776C64.1152 55.214 64.1594 55.5858 64.1948 55.9929C64.2302 56.4001 64.2479 56.8515 64.2479 57.3472V59.8434H61.5925V56.9755C61.5925 56.1257 61.504 55.5327 61.3269 55.1963C61.1676 54.8599 60.9021 54.6918 60.5303 54.6918C60.4241 54.6918 60.2913 54.7006 60.132 54.7183C59.9904 54.736 59.8487 54.7626 59.7071 54.798V64.5966H57.0517V52.594C57.7421 52.3992 58.4236 52.2487 59.0964 52.1425C59.7691 52.0363 60.3621 51.9832 60.8755 51.9832C61.3358 51.9832 61.743 52.0452 62.097 52.1691C62.4688 52.2753 62.7874 52.4612 63.053 52.7267C63.3539 52.532 63.708 52.3638 64.1152 52.2222C64.5223 52.0629 64.9472 51.9832 65.3898 51.9832Z" fill="black"/>
<path d="M82.0926 58.3297C82.0926 59.3211 81.951 60.224 81.6677 61.0383C81.3845 61.8349 80.9862 62.5254 80.4728 63.1096C79.9594 63.6938 79.3398 64.1452 78.614 64.4639C77.9058 64.7825 77.1092 64.9418 76.2241 64.9418C75.3389 64.9418 74.5334 64.7825 73.8076 64.4639C73.0995 64.1452 72.4799 63.6938 71.9488 63.1096C71.4354 62.5254 71.0371 61.8349 70.7538 61.0383C70.4706 60.224 70.3289 59.3211 70.3289 58.3297C70.3289 57.3561 70.4706 56.4709 70.7538 55.6743C71.0548 54.8599 71.4619 54.1695 71.9753 53.603C72.5064 53.0188 73.1349 52.5763 73.8607 52.2753C74.5865 51.9566 75.3743 51.7973 76.2241 51.7973C77.0915 51.7973 77.8793 51.9566 78.5874 52.2753C79.3132 52.5763 79.9328 53.0188 80.4462 53.603C80.9773 54.1695 81.3845 54.8599 81.6677 55.6743C81.951 56.4709 82.0926 57.3561 82.0926 58.3297ZM73.6483 58.3563C73.6483 59.4716 73.843 60.3744 74.2325 61.0649C74.6396 61.7553 75.2858 62.1005 76.1709 62.1005C77.0207 62.1005 77.658 61.7553 78.0829 61.0649C78.5255 60.3744 78.7467 59.4716 78.7467 58.3563C78.7467 57.241 78.5432 56.347 78.136 55.6743C77.7465 54.9839 77.1092 54.6387 76.2241 54.6387C75.3743 54.6387 74.7281 54.9839 74.2856 55.6743C73.8607 56.347 73.6483 57.241 73.6483 58.3563Z" fill="black"/>
<path d="M84.5091 52.5143C85.0933 52.355 85.8103 52.2045 86.66 52.0629C87.5275 51.9212 88.4657 51.8504 89.4748 51.8504C90.4662 51.8504 91.2894 51.9921 91.9444 52.2753C92.5994 52.5408 93.1128 52.9303 93.4845 53.4437C93.874 53.9394 94.1484 54.5413 94.3077 55.2494C94.4671 55.9398 94.5467 56.7099 94.5467 57.5597V64.5966H91.2805V57.9845C91.2805 56.8161 91.1477 55.9752 90.8822 55.4618C90.6166 54.9485 90.0767 54.6918 89.2624 54.6918C89.0145 54.6918 88.7667 54.7006 88.5188 54.7183C88.2887 54.736 88.0408 54.7626 87.7753 54.798V64.5966H84.5091V52.5143Z" fill="black"/>
<path d="M100.309 57.958C100.309 58.9848 100.495 59.7725 100.867 60.3213C101.238 60.8524 101.823 61.118 102.619 61.118C102.973 61.118 103.301 61.0737 103.602 60.9852C103.92 60.8967 104.204 60.7816 104.452 60.64V54.6387C104.204 54.5855 103.982 54.5501 103.788 54.5324C103.593 54.5147 103.389 54.5059 103.177 54.5059C101.265 54.5059 100.309 55.6566 100.309 57.958ZM107.744 63.083C107.744 65.1189 107.249 66.6236 106.257 67.5973C105.284 68.571 103.708 69.0578 101.531 69.0578C100.752 69.0578 99.9993 68.9781 99.2734 68.8188C98.5653 68.6595 97.9333 68.3196 97.2783 68.1072L97.8395 65.4995C98.3529 65.6942 98.8928 65.8712 99.4593 66.0306C100.026 66.2076 100.734 66.2961 101.584 66.2961C102.15 66.2961 102.619 66.2253 102.991 66.0837C103.363 65.9598 103.655 65.7827 103.867 65.5526C104.08 65.3225 104.23 65.0481 104.319 64.7294C104.407 64.4284 104.452 64.1009 104.452 63.7469V63.2423C103.991 63.4194 103.566 63.5521 103.177 63.6407C102.805 63.7292 102.398 63.7734 101.955 63.7734C100.327 63.7734 99.0876 63.26 98.2378 62.2333C97.4058 61.2065 96.9897 59.7814 96.9897 57.958C96.9897 55.9044 97.5562 54.3731 98.6892 53.364C99.8222 52.355 101.362 51.8504 103.31 51.8504C104.673 51.8504 106.151 52.0717 107.744 52.5143V63.083Z" fill="black"/>
<path d="M121.924 58.3297C121.924 59.3211 121.783 60.224 121.5 61.0383C121.216 61.8349 120.818 62.5254 120.305 63.1096C119.791 63.6938 119.172 64.1452 118.446 64.4639C117.738 64.7825 116.941 64.9418 116.056 64.9418C115.171 64.9418 114.365 64.7825 113.639 64.4639C112.931 64.1452 112.312 63.6938 111.781 63.1096C111.267 62.5254 110.869 61.8349 110.586 61.0383C110.302 60.224 110.161 59.3211 110.161 58.3297C110.161 57.3561 110.302 56.4709 110.586 55.6743C110.887 54.8599 111.294 54.1695 111.807 53.603C112.338 53.0188 112.967 52.5763 113.693 52.2753C114.418 51.9566 115.206 51.7973 116.056 51.7973C116.923 51.7973 117.711 51.9566 118.419 52.2753C119.145 52.5763 119.765 53.0188 120.278 53.603C120.809 54.1695 121.216 54.8599 121.5 55.6743C121.783 56.4709 121.924 57.3561 121.924 58.3297ZM113.48 58.3563C113.48 59.4716 113.675 60.3744 114.064 61.0649C114.472 61.7553 115.118 62.1005 116.003 62.1005C116.853 62.1005 117.49 61.7553 117.915 61.0649C118.357 60.3744 118.579 59.4716 118.579 58.3563C118.579 57.241 118.375 56.347 117.968 55.6743C117.578 54.9839 116.941 54.6387 116.056 54.6387C115.206 54.6387 114.56 54.9839 114.117 55.6743C113.693 56.347 113.48 57.241 113.48 58.3563Z" fill="black"/>
<path d="M59.5708 75.7429H56.7295V73.0343H59.5708V69.9009L62.837 69.3698V73.0343H68.0683V75.7429H62.837V80.7883C62.837 81.2485 62.8813 81.6203 62.9698 81.9036C63.0583 82.1868 63.1823 82.4081 63.3416 82.5674C63.5009 82.7267 63.6956 82.833 63.9258 82.8861C64.1559 82.9392 64.4126 82.9657 64.6959 82.9657C64.9968 82.9657 65.2712 82.9569 65.5191 82.9392C65.7846 82.9215 66.0324 82.8949 66.2626 82.8595C66.5104 82.8064 66.7583 82.7356 67.0061 82.6471C67.2717 82.5586 67.5549 82.4435 67.8559 82.3019L68.3073 85.1167C67.7054 85.3645 67.0504 85.5415 66.3423 85.6478C65.6518 85.754 64.9791 85.8071 64.3241 85.8071C63.5629 85.8071 62.8902 85.7451 62.306 85.6212C61.7218 85.4973 61.2261 85.2583 60.8189 84.9042C60.4117 84.5502 60.1019 84.0545 59.8895 83.4172C59.6771 82.7622 59.5708 81.9124 59.5708 80.8679V75.7429Z" fill="black"/>
<path d="M69.874 79.3809C69.874 78.2833 70.0422 77.3185 70.3785 76.4864C70.7149 75.6544 71.1575 74.964 71.7063 74.4152C72.2551 73.8487 72.8835 73.4238 73.5917 73.1405C74.2998 72.8573 75.0256 72.7157 75.7691 72.7157C77.6102 72.7157 79.0088 73.2645 79.9648 74.3621C80.9207 75.4419 81.3987 77.0264 81.3987 79.1153C81.3987 79.3278 81.3898 79.549 81.3721 79.7792C81.3721 80.0093 81.3633 80.1952 81.3456 80.3368H73.2464C73.2464 81.1512 73.5828 81.7973 74.2555 82.2753C74.9282 82.7356 75.7957 82.9657 76.8579 82.9657C77.5129 82.9657 78.1325 82.8949 78.7167 82.7533C79.3186 82.6117 79.8231 82.4701 80.2303 82.3284L80.6817 85.1167C80.1152 85.3114 79.5133 85.4707 78.876 85.5946C78.2387 85.7363 77.5217 85.8071 76.7251 85.8071C75.6629 85.8071 74.7069 85.6743 73.8572 85.4088C73.0252 85.1255 72.3082 84.7183 71.7063 84.1873C71.1221 83.6385 70.6706 82.9657 70.352 82.1691C70.0333 81.3725 69.874 80.4431 69.874 79.3809ZM78.2387 78.0797C78.2387 77.7433 78.1944 77.4247 78.1059 77.1237C78.0174 76.8051 77.8758 76.5218 77.6811 76.274C77.4863 76.0261 77.2385 75.8314 76.9375 75.6898C76.6366 75.5305 76.2648 75.4508 75.8222 75.4508C75.3974 75.4508 75.0256 75.5216 74.7069 75.6632C74.406 75.8049 74.1493 75.9996 73.9369 76.2474C73.7421 76.4953 73.5828 76.7785 73.4589 77.0972C73.3527 77.4158 73.2818 77.7433 73.2464 78.0797H78.2387Z" fill="black"/>
<path d="M83.4965 79.2747C83.4965 78.3718 83.6381 77.522 83.9214 76.7254C84.2046 75.9288 84.6384 75.2384 85.2226 74.6542C85.8068 74.0523 86.5414 73.5831 87.4266 73.2468C88.3294 72.8927 89.4005 72.7157 90.6397 72.7157C91.3832 72.7157 92.0559 72.7688 92.6578 72.875C93.2597 72.9812 93.8705 73.1582 94.4901 73.4061L93.7731 76.035C93.4191 75.9111 93.0208 75.8049 92.5782 75.7163C92.1533 75.6101 91.6045 75.557 90.9318 75.557C90.1529 75.557 89.4978 75.6544 88.9668 75.8491C88.4534 76.0261 88.0373 76.2828 87.7187 76.6192C87.4 76.9379 87.1699 77.3273 87.0283 77.7876C86.8866 78.2479 86.8158 78.7436 86.8158 79.2747C86.8158 80.4254 87.1345 81.3282 87.7718 81.9832C88.4268 82.6382 89.5333 82.9657 91.0911 82.9657C91.6045 82.9657 92.1356 82.9303 92.6844 82.8595C93.2509 82.7887 93.7643 82.6736 94.2246 82.5143L94.7025 85.1963C94.2423 85.3734 93.6846 85.515 93.0296 85.6212C92.3746 85.7451 91.6045 85.8071 90.7194 85.8071C89.4447 85.8071 88.3471 85.6389 87.4266 85.3025C86.5237 84.9662 85.7802 84.5059 85.196 83.9217C84.6118 83.3375 84.1781 82.6471 83.8948 81.8504C83.6293 81.0538 83.4965 80.1952 83.4965 79.2747Z" fill="black"/>
<path d="M97.2783 85.515V68.1072L100.545 67.0861V73.1405C100.81 73.052 101.129 72.9724 101.501 72.9016C101.872 72.813 102.2 72.7688 102.483 72.7688C103.404 72.7688 104.174 72.9104 104.793 73.1937C105.413 73.4592 105.909 73.8487 106.28 74.3621C106.652 74.8577 106.918 75.4596 107.077 76.1678C107.236 76.8582 107.316 77.6283 107.316 78.478V85.515H104.05V78.9029C104.05 77.7345 103.917 76.8936 103.651 76.3802C103.386 75.8668 102.881 75.6101 102.138 75.6101C101.837 75.6101 101.536 75.6455 101.235 75.7163C100.952 75.7872 100.722 75.8491 100.545 75.9022V85.515H97.2783Z" fill="black"/>
<path d="M45.2669 62.0079C45.2669 62.0079 45.4911 61.387 43.8699 61.6629C42.2487 61.9388 43.4905 63.4221 43.4905 63.4221C43.4905 63.4221 45.2151 63.1806 45.2669 62.0079Z" fill="#52D17C"/>
<path d="M36.5557 61.968C36.5586 61.9822 36.5616 61.9905 36.5616 61.9905C36.5617 61.9932 36.5619 61.9962 36.5621 61.9989C36.68 62.2493 36.7932 62.4986 36.8991 62.7467C37.4148 63.2755 38.3379 63.4047 38.3379 63.4047C38.3379 63.4047 38.7296 62.9369 38.7858 62.4778C38.8296 62.1195 38.6692 61.7664 37.9585 61.6455C36.5239 61.4013 36.5343 61.8594 36.5557 61.968Z" fill="#52D17C"/>
<path d="M9.0071 74.3676C9.01 74.3436 9.01378 74.3197 9.01849 74.2956C9.01965 74.2896 9.02091 74.2837 9.02213 74.2777C9.02468 74.266 9.02742 74.2541 9.03055 74.2422C9.0361 74.2208 9.04229 74.1996 9.04939 74.1784C9.09836 74.0302 9.18572 73.8888 9.31912 73.7578C9.55158 73.5287 9.77392 73.4428 9.99341 73.4394C9.99896 73.4394 10.0046 73.4392 10.0103 73.4392H10.0145C10.6053 73.4438 11.1793 74.0316 11.8876 74.0254C11.9388 74.0251 11.9909 74.0215 12.0437 74.0143C12.1554 73.9994 12.2956 73.8983 12.463 73.7389C12.6042 73.6039 12.7647 73.4269 12.9435 73.2243C13.8447 72.2018 15.2056 70.5266 16.8779 70.3079C16.9687 70.2959 17.0608 70.2882 17.1537 70.2855C17.1936 70.2843 17.2338 70.2838 17.274 70.2843H17.2749C17.6085 70.2884 17.9533 70.3534 18.3086 70.4951C19.2184 70.8576 20.6525 71.9841 21.6179 72.3878C21.6448 72.3992 21.6716 72.4099 21.6978 72.4201C21.9044 72.5 22.0868 72.5428 22.2349 72.5325C22.2492 72.5315 22.2632 72.5301 22.2771 72.528C22.943 72.4309 23.5681 71.0794 23.9013 70.2802C23.9011 70.2803 23.9011 70.28 23.9013 70.2802C23.9011 70.28 23.9011 70.2793 23.9013 70.2791C23.9822 70.0848 24.0455 69.9232 24.0879 69.8203C24.1979 69.5529 24.3147 69.2892 24.4386 69.0316C25.3985 67.0364 26.7949 65.4133 28.9454 65.4505C29.5628 65.461 30.2425 65.6085 30.9918 65.9234C31.1731 65.9996 31.3506 66.091 31.5243 66.1952C31.5627 66.2181 31.6008 66.2418 31.639 66.2659C33.0268 67.1487 34.1716 68.8099 35.0942 69.8016C35.1089 69.8171 35.1232 69.8326 35.1377 69.8478C35.5841 70.3211 35.9778 70.6296 36.3212 70.606C36.3426 70.6044 36.3638 70.6026 36.3848 70.6004C36.7727 70.561 37.0857 70.4081 37.3346 70.1674C37.3843 70.1195 37.4312 70.068 37.4758 70.0132C37.5195 69.9597 37.5607 69.9028 37.5997 69.8433C37.6221 69.809 37.6438 69.7737 37.6649 69.7374C38.0115 69.1373 38.1565 68.2777 38.169 67.3197C38.1866 65.9653 37.9394 64.4141 37.6233 63.1201C37.58 62.9432 37.532 62.7654 37.4798 62.5872C37.4108 62.3512 37.3346 62.1143 37.2523 61.8763C36.5028 59.7044 35.2671 57.4561 34.6255 55.244C34.1875 53.7329 34.0266 52.2388 34.4876 50.7976C35.0912 48.9102 36.5889 47.9946 38.2243 48.0355C40.2291 48.0855 42.4407 49.573 43.4657 52.4699C43.4919 52.5439 43.5173 52.6187 43.5419 52.6946C44.4141 55.382 44.8032 58.5167 44.8128 61.6393C44.8137 61.9096 44.8118 62.1799 44.8068 62.4498C44.7749 64.2736 44.616 66.0796 44.3509 67.776C44.338 67.8602 44.3246 67.9441 44.3109 68.0278C44.0286 69.7558 43.4659 71.5715 42.6213 73.119C42.6073 73.1445 42.5934 73.17 42.5792 73.1953C42.5725 73.2074 42.5656 73.2196 42.5589 73.2318C42.5039 73.33 42.4476 73.4273 42.3904 73.5234C41.1585 75.5852 39.3917 77.0789 37.0868 77.0761C35.8699 77.0747 34.7979 76.9499 33.6514 76.2792C33.5135 76.1985 33.3746 76.11 33.2343 76.0126C33.2344 76.0127 33.2341 76.0126 33.2343 76.0126C33.1271 75.9388 33.0189 75.8592 32.9098 75.7747C31.6645 74.8087 30.5712 72.7467 29.55 72.0184C29.4947 71.979 29.4397 71.9434 29.3849 71.9122C29.2128 71.8144 29.0429 71.7587 28.8745 71.757C28.3657 71.752 27.8561 72.4177 27.2651 73.2797C27.2362 73.322 27.2071 73.3647 27.1778 73.4078C26.1696 74.8889 24.9199 76.8604 23.0445 77.0611C22.539 77.1152 22.0535 77.0696 21.5873 76.9509C21.5063 76.9304 21.4258 76.9077 21.3458 76.8826C20.2725 76.5487 19.3043 75.8432 18.4345 75.1107C17.9523 74.7046 17.5725 74.5024 17.2258 74.4623C17.1481 74.4531 17.072 74.4523 16.9969 74.4592C16.3849 74.5143 15.8303 75.0769 14.9104 75.8936C14.6167 76.1543 14.3014 76.3787 13.9684 76.5561C13.9328 76.575 13.8972 76.5934 13.8613 76.6111C13.0721 77.0035 12.1889 77.1323 11.2657 76.8644C10.3461 76.5974 9.01642 75.4811 9.00016 74.507C8.99932 74.4602 9.00174 74.4136 9.0071 74.3676Z" fill="#007C29"/>
<path d="M9.0071 74.3676C9.01 74.3436 9.01378 74.3197 9.01849 74.2956C9.01965 74.2896 9.02091 74.2837 9.02213 74.2777C9.02468 74.266 9.02742 74.2541 9.03055 74.2422C9.0361 74.2208 9.04229 74.1996 9.04939 74.1784C9.09901 74.0304 9.18747 73.8889 9.32151 73.7579C9.55307 73.5312 9.7744 73.4447 9.99341 73.4394C9.99896 73.4394 10.0046 73.4392 10.0103 73.4392H10.0145C10.6062 73.4392 11.1807 74.0205 11.8876 74.0254C11.9457 74.0259 12.0049 74.0225 12.0649 74.0144C12.1775 73.9995 12.3186 73.8984 12.4871 73.739C12.6294 73.604 12.791 73.427 12.9709 73.2244C13.8786 72.2019 15.2487 70.5267 16.9326 70.308C17.0241 70.2959 17.1169 70.2883 17.2102 70.2856C17.2314 70.2849 17.2536 70.2845 17.2749 70.2843C17.6286 70.2811 17.9953 70.3454 18.3733 70.4952C19.2892 70.8577 20.7333 71.9842 21.7055 72.3879C21.7326 72.3993 21.7594 72.41 21.7859 72.4202C21.9532 72.4844 22.1046 72.5246 22.2349 72.5325C22.2825 72.5355 22.3274 72.5342 22.3692 72.5281C23.0397 72.431 23.6691 71.0794 24.0046 70.2803C24.0044 70.2804 24.0044 70.2801 24.0046 70.2803C24.0044 70.2801 24.0044 70.2794 24.0046 70.2792C24.0862 70.0849 24.1499 69.9232 24.1925 69.8204C24.3033 69.553 24.4209 69.2892 24.5456 69.0316C25.4916 67.0792 26.8582 65.483 28.9454 65.4505C29.5628 65.461 30.2425 65.6085 30.9918 65.9234C31.1731 65.9996 31.3506 66.091 31.5243 66.1952C31.5627 66.2181 31.6008 66.2418 31.639 66.2659C33.0268 67.1487 34.1716 68.8099 35.0942 69.8016C35.1089 69.8171 35.1232 69.8326 35.1377 69.8478C35.5841 70.3211 35.9778 70.6296 36.3212 70.606C36.3426 70.6044 36.3638 70.6026 36.3848 70.6004C36.4274 70.6068 36.4695 70.6088 36.5106 70.6061C36.9309 70.5772 37.2668 70.4213 37.531 70.1675C37.581 70.1195 37.6283 70.0681 37.6733 70.0133C37.7171 69.9598 37.7587 69.9029 37.798 69.8434C37.8204 69.8091 37.8423 69.7738 37.8635 69.7375C38.2072 69.1466 38.354 68.3045 38.3706 67.3646C38.3944 65.9997 38.1436 64.4285 37.8218 63.1202C37.7821 62.9597 37.7387 62.7984 37.6918 62.6368C37.6184 62.3844 37.5367 62.131 37.4482 61.8764C36.8212 59.718 35.5737 57.4692 34.8031 55.2441C34.3621 53.733 34.2 52.2389 34.6643 50.7976C35.2471 48.9879 36.6577 48.0716 38.2243 48.0355C40.2946 47.9874 42.6379 49.4759 43.7046 52.47C44.5321 55.2567 44.8649 58.4733 44.8128 61.6393C44.8083 61.9115 44.8013 62.1832 44.7909 62.4543C44.7295 64.1076 44.5646 65.7357 44.3125 67.269C44.284 67.4415 44.253 67.615 44.2188 67.7888C43.9124 69.3569 43.3767 70.9674 42.6113 72.3602C42.5972 72.3857 42.583 72.4112 42.5689 72.4366C42.5621 72.4486 42.5551 72.4609 42.5484 72.473C42.493 72.5712 42.4364 72.6685 42.3786 72.7646C41.1383 74.8264 39.3593 76.3201 37.0383 76.3174C35.8129 76.316 34.7334 76.1911 33.5791 75.5204C33.4403 75.4397 33.3005 75.3512 33.1592 75.2538C33.1593 75.2539 33.159 75.2538 33.1592 75.2538C33.0512 75.18 32.9422 75.1004 32.8326 75.016C31.5786 74.0499 30.4777 71.9879 29.4495 71.2597C29.3936 71.2202 29.3383 71.1846 29.283 71.1534C29.11 71.0556 28.9388 71 28.7691 70.9982C28.2569 70.9932 27.7438 71.6589 27.1486 72.5209C27.1196 72.5632 27.0902 72.6059 27.0607 72.649C26.0455 74.1302 24.7873 76.1016 22.8988 76.3024C22.3898 76.3565 21.9011 76.3108 21.4316 76.1922C21.3501 76.1716 21.2688 76.1489 21.1883 76.1238C20.1075 75.7899 19.1326 75.0844 18.2569 74.352C17.7714 73.9458 17.389 73.7437 17.0399 73.7035C16.9617 73.6943 16.8849 73.6935 16.8092 73.7004C16.1932 73.7556 15.6347 74.3182 14.7085 75.1348C14.4126 75.3956 14.0952 75.6199 13.7599 75.7974C13.724 75.8162 13.6881 75.8346 13.6521 75.8524C12.8574 76.2447 11.968 76.3736 11.0384 76.1056C10.3494 75.9069 9.43135 75.2378 9.00016 74.507C8.99932 74.4602 9.00174 74.4136 9.0071 74.3676Z" fill="#00BE3F"/>
<path d="M35.1035 69.8135C35.5498 70.2867 35.9435 70.5953 36.2869 70.5716C36.3083 70.5701 36.3295 70.5683 36.3506 70.5661C36.3931 70.5725 36.4351 70.5745 36.4761 70.5716C36.8964 70.5428 37.2324 70.3869 37.4966 70.1331C37.5247 70.1061 37.5518 70.078 37.5782 70.0489C37.5342 70.152 37.4857 70.2496 37.4324 70.3412C37.4112 70.3775 37.3893 70.4128 37.3669 70.4471C37.3276 70.5066 37.286 70.5634 37.2422 70.6168C37.1972 70.6716 37.1499 70.7233 37.0999 70.7712C36.8357 71.025 36.4997 71.1809 36.0795 71.2098C36.0384 71.2125 35.9965 71.2106 35.9539 71.2042C35.9329 71.2065 35.9117 71.2082 35.8903 71.2098C35.5469 71.2334 35.1531 70.9249 34.7068 70.4516C34.6923 70.4364 34.678 70.4209 34.6634 70.4054C33.7406 69.4137 32.5959 67.7525 31.208 66.8697C31.17 66.8456 31.1318 66.8219 31.0933 66.799C30.9196 66.6948 30.7422 66.6034 30.5609 66.5272C29.8116 66.2123 29.1319 66.0648 28.5145 66.0543C26.9288 66.0791 25.7592 67.006 24.8738 68.3062C25.7986 66.6813 27.0764 65.4448 28.9111 65.4162C29.5286 65.4266 30.2082 65.5741 30.9576 65.8891C31.1389 65.9653 31.3163 66.0567 31.49 66.1608C31.5285 66.1838 31.5666 66.2074 31.6047 66.2316C32.9925 67.1144 34.1373 68.7756 35.06 69.7672C35.0747 69.7828 35.0889 69.7983 35.1035 69.8135Z" fill="#62D989"/>
<path d="M42.1171 73.0766C42.1239 73.0645 42.1309 73.0523 42.1377 73.0402C42.1518 73.0148 42.1659 72.9893 42.1801 72.9638C43.0303 71.4165 43.597 69.6007 43.8812 67.8727C44.1748 66.0878 44.35 64.1748 44.3818 62.243C44.4338 59.077 44.1008 55.8603 43.2733 53.0736C42.2066 50.0795 39.8635 48.5911 37.7932 48.6392C36.6668 48.6651 35.6209 49.1462 34.9055 50.0872C35.5916 48.725 36.8321 48.0324 38.1899 48.0011C40.2602 47.953 42.6033 49.4413 43.67 52.4355C44.4975 55.2222 44.8305 58.4389 44.7784 61.6049C44.7467 63.5368 44.5715 65.4497 44.2779 67.2345C43.9937 68.9626 43.427 70.7783 42.5767 72.3256C42.5626 72.3513 42.5485 72.3768 42.5343 72.4021C42.5276 72.4142 42.5205 72.4264 42.5138 72.4385C42.4584 72.5367 42.4019 72.634 42.3441 72.7302C42.2506 72.8854 42.1541 73.0375 42.0545 73.186C42.0755 73.1496 42.0965 73.1133 42.1171 73.0766Z" fill="#52D17C"/>
<path d="M36.6954 62.0114C36.7402 62.0248 36.785 62.0383 36.8299 62.0514C36.8528 62.0581 36.8758 62.0648 36.8987 62.0714C36.9446 62.0845 36.9906 62.0976 37.0365 62.1102C37.0523 62.1146 37.0682 62.119 37.0839 62.1232C37.0948 62.1262 37.1058 62.1292 37.1167 62.1321C37.2197 62.1599 37.3229 62.1866 37.4266 62.2121C37.4583 62.2199 37.4901 62.2276 37.522 62.2352C37.5247 62.2357 37.5275 62.2365 37.5303 62.2371C37.597 62.2531 37.6641 62.2685 37.7312 62.2835C37.7688 62.2919 37.8066 62.3002 37.8443 62.3084C37.876 62.3151 37.9078 62.3218 37.9395 62.3284C37.9647 62.3335 37.99 62.3389 38.0156 62.3439C38.0373 62.3484 38.0592 62.3527 38.0811 62.357C38.1268 62.366 38.1723 62.3748 38.2181 62.3834C38.2201 62.3837 38.2224 62.3842 38.2246 62.3846C38.2468 62.3888 38.2691 62.3929 38.2915 62.3969C38.3858 62.4141 38.4806 62.4303 38.5752 62.4455C38.6102 62.4512 38.6454 62.4567 38.6804 62.462C38.7156 62.4675 38.7506 62.4727 38.7858 62.4778C40.9621 62.7962 43.2031 62.6183 45.2767 61.9443C45.2803 62.1194 45.282 62.2949 45.282 62.4703V62.4775C45.282 62.5281 45.2818 62.5788 45.2815 62.6293C45.2813 62.681 45.2808 62.7326 45.2801 62.7842C45.2796 62.8271 45.2791 62.87 45.2782 62.913C45.2776 62.9588 45.2767 63.0044 45.2757 63.0499C45.2749 63.0878 45.2739 63.1255 45.2729 63.1632C45.272 63.204 45.2708 63.2447 45.2694 63.2852C45.2686 63.3207 45.2674 63.3564 45.266 63.3919C45.2658 63.4006 45.2655 63.4092 45.2651 63.4177C45.2641 63.4502 45.2629 63.4827 45.2615 63.5153C45.2601 63.5501 45.2587 63.5849 45.2574 63.6198C45.257 63.6252 45.2568 63.6302 45.2567 63.6355C45.2549 63.6722 45.2534 63.709 45.2517 63.7457C45.2498 63.7831 45.248 63.8204 45.246 63.8575C45.2458 63.8622 45.2455 63.8671 45.2453 63.8719C45.2432 63.9114 45.2412 63.9509 45.2387 63.9902C45.2186 64.349 45.1913 64.7065 45.1573 65.0621C45.1537 65.1007 45.1499 65.1392 45.1459 65.1778C45.1423 65.2156 45.1384 65.2531 45.1344 65.2906C45.1315 65.3206 45.1284 65.3507 45.1249 65.3806C45.1234 65.3968 45.1215 65.4133 45.1197 65.4294C45.1161 65.4637 45.1122 65.4983 45.1082 65.5326C45.1047 65.5645 45.1011 65.5962 45.0973 65.628C45.092 65.6752 45.0863 65.7223 45.0806 65.7694C45.0751 65.8142 45.0695 65.8592 45.064 65.9039C45.063 65.9108 45.0621 65.9175 45.0614 65.9242C45.0559 65.9667 45.0504 66.0091 45.0449 66.0513C45.0364 66.1156 45.0278 66.1798 45.0188 66.2438C45.0147 66.2733 45.0106 66.3028 45.0064 66.3321C44.9987 66.3875 44.9906 66.4427 44.9823 66.4979C44.9699 66.5824 44.9571 66.6667 44.9437 66.7507C44.9364 66.7971 44.929 66.8433 44.9214 66.8896C44.9152 66.9278 44.9088 66.9661 44.9024 67.0042C44.9011 67.0121 44.8999 67.0201 44.8985 67.028C44.8936 67.0565 44.8888 67.085 44.884 67.1132C44.8786 67.1454 44.8731 67.1772 44.8674 67.2091C44.8588 67.2585 44.85 67.3076 44.8412 67.3568C44.6644 67.3804 44.4871 67.4007 44.3095 67.4181C44.1764 67.4312 44.0429 67.4427 43.9092 67.4523C43.8647 67.4555 43.8201 67.4587 43.7755 67.4614C43.6886 67.4669 43.6017 67.4718 43.5146 67.4761C43.5105 67.4762 43.5062 67.4764 43.5018 67.4766C43.3709 67.4828 43.2399 67.4875 43.1088 67.4905C43.1067 67.4907 43.1045 67.4907 43.1024 67.4907C42.8198 67.4975 42.5364 67.497 42.2525 67.4897C42.0061 67.4834 41.7593 67.4721 41.5123 67.4559C41.5054 67.4554 41.4985 67.455 41.4914 67.4545C41.3448 67.4447 41.1981 67.4331 41.0513 67.4199C41.0011 67.4154 40.9511 67.4107 40.9009 67.4059C40.8507 67.4009 40.8007 67.3959 40.7505 67.3905C40.7007 67.3854 40.6508 67.3799 40.601 67.3743C40.5991 67.3742 40.597 67.3738 40.595 67.3734C40.5465 67.3681 40.4982 67.3625 40.4497 67.3566C40.3995 67.3506 40.3494 67.3443 40.2994 67.3379C40.2492 67.3316 40.199 67.3249 40.1488 67.3181C40.0988 67.3114 40.0486 67.3043 39.9984 67.2972C39.9484 67.29 39.8982 67.2827 39.848 67.2752C39.8054 67.269 39.7626 67.2625 39.72 67.2557C39.699 67.2524 39.6779 67.2491 39.6569 67.2457C39.5704 67.2319 39.4836 67.2176 39.397 67.2027C39.3479 67.1943 39.2985 67.1856 39.2494 67.1771C39.2456 67.1763 39.2418 67.1756 39.238 67.175C39.1909 67.1665 39.1437 67.1579 39.0966 67.1491C39.0504 67.1406 39.0041 67.1319 38.9579 67.123C38.9386 67.1193 38.9193 67.1156 38.9 67.1116C38.8669 67.1053 38.8336 67.0988 38.8003 67.0922C38.7962 67.0913 38.792 67.0907 38.7879 67.0896C38.7408 67.0803 38.6935 67.0708 38.6463 67.0609C38.5964 67.0508 38.5464 67.0403 38.4964 67.0295C38.4479 67.0192 38.3993 67.0089 38.3508 66.998C38.3103 66.9892 38.27 66.9802 38.2294 66.9711C38.182 66.9606 38.1346 66.9497 38.0871 66.9387C38.048 66.9297 38.0089 66.9205 37.9697 66.9113C37.9594 66.9089 37.9492 66.9064 37.9388 66.904C37.925 66.9009 37.9114 66.8975 37.8976 66.8942C37.8955 66.8644 37.8933 66.8345 37.8909 66.8045C37.8893 66.7829 37.8876 66.7612 37.8857 66.7397C37.8759 66.6229 37.8641 66.5058 37.8509 66.3887C37.846 66.3464 37.841 66.3042 37.8357 66.2619C37.8307 66.2207 37.8254 66.1795 37.8198 66.1385C37.8196 66.1374 37.8195 66.1362 37.8193 66.135C37.8136 66.0927 37.8077 66.0505 37.8016 66.0084C37.7959 65.9678 37.7896 65.927 37.7835 65.8863C37.7833 65.8852 37.7831 65.8842 37.7829 65.8832C37.7829 65.8827 37.7829 65.8823 37.7827 65.8818C37.7827 65.882 37.7827 65.8816 37.7827 65.8818C37.7824 65.8801 37.7822 65.8781 37.7819 65.8763C37.7769 65.8432 37.7716 65.8103 37.7662 65.7773C37.7607 65.7425 37.7548 65.7078 37.7489 65.6732C37.7314 65.5691 37.7125 65.4655 37.6927 65.3626C37.6831 65.3122 37.6732 65.262 37.6631 65.212C37.6582 65.1878 37.6532 65.1637 37.6482 65.1398C37.6244 65.025 37.5994 64.9114 37.5734 64.7991C37.5685 64.778 37.5637 64.7572 37.5587 64.7363C37.5213 64.5773 37.4818 64.4214 37.4409 64.2693C37.3062 63.7686 37.1181 63.2603 36.8991 62.7467C36.8827 62.7084 36.8661 62.67 36.8494 62.6317C36.8329 62.5935 36.8159 62.555 36.7988 62.5167C36.7814 62.4769 36.7635 62.4368 36.7456 62.397C36.7419 62.3892 36.7385 62.3815 36.7351 62.3737C36.7176 62.3352 36.7002 62.2967 36.6825 62.2582C36.6643 62.2186 36.646 62.1788 36.6276 62.1392C36.606 62.0925 36.5841 62.0457 36.5621 61.9989C36.5619 61.9962 36.5617 61.9932 36.5616 61.9905C36.5616 61.9905 36.5586 61.9822 36.5557 61.968C36.6021 61.9827 36.6486 61.9972 36.6954 62.0114Z" fill="#6CFF9D"/>
<path d="M39.7212 52.7131C39.9923 54.2956 41.4949 55.3585 43.0772 55.0874C44.2731 54.8825 45.1722 53.9742 45.4232 52.8596C45.5041 52.4994 45.5175 52.1178 45.4513 51.7313C45.1802 50.149 43.6776 49.086 42.0953 49.3571C40.8553 49.5696 39.9343 50.5385 39.7242 51.7093C39.6663 52.0323 39.6625 52.3709 39.7212 52.7131Z" fill="#52D17C"/>
<path d="M39.7212 52.7131C39.9923 54.2956 41.4949 55.3585 43.0772 55.0874C44.2731 54.8825 45.1722 53.9742 45.4232 52.8596C45.4815 52.5359 45.4854 52.1964 45.4266 51.8532C45.1555 50.2709 43.653 49.2079 42.0706 49.4791C40.8739 49.6841 39.9743 50.5937 39.7242 51.7093C39.6663 52.0323 39.6625 52.3709 39.7212 52.7131Z" fill="#6CFF9D"/>
<path d="M39.912 52.8327C40.1612 54.2872 41.5425 55.2644 42.9971 55.0152C44.4517 54.7659 45.4288 53.3847 45.1796 51.9301C44.9304 50.4755 43.5491 49.4984 42.0945 49.7476C40.6399 49.9968 39.6628 51.3781 39.912 52.8327Z" fill="#007C29"/>
<path d="M42.9356 54.9414C41.5437 55.1697 40.2303 54.2265 40.0019 52.8346C39.8473 51.8922 40.2297 50.9856 40.9252 50.4279C41.2564 50.1615 41.6592 49.9748 42.1084 49.901C43.5003 49.6726 44.8139 50.6156 45.0423 52.0075C45.1159 52.4563 45.0676 52.897 44.9218 53.2958C44.6157 54.1336 43.8786 54.7867 42.9356 54.9414Z" fill="#B7B7B7"/>
<path d="M43.0328 54.755C41.6639 54.9797 40.3721 54.0519 40.1474 52.683C40.0053 51.8166 40.3246 50.9813 40.9252 50.4279C41.2564 50.1615 41.6592 49.9748 42.1084 49.901C43.5003 49.6726 44.8139 50.6156 45.0423 52.0075C45.1159 52.4563 45.0676 52.897 44.9218 53.2958C44.5895 54.0427 43.8997 54.6127 43.0328 54.755Z" fill="white"/>
<path d="M42.8534 53.7481C42.1175 53.8689 41.4231 53.3702 41.3024 52.6343C41.1816 51.8985 41.6803 51.204 42.4162 51.0833C43.152 50.9625 43.8464 51.4612 43.9672 52.197C44.088 52.9329 43.5893 53.6273 42.8534 53.7481Z" fill="#020202"/>
<path d="M43.4534 51.902C43.1624 51.9497 42.8878 51.7525 42.84 51.4615C42.7922 51.1704 42.9894 50.8958 43.2805 50.848C43.5715 50.8003 43.8462 50.9975 43.8939 51.2885C43.9417 51.5796 43.7444 51.8542 43.4534 51.902Z" fill="white"/>
<path d="M42.7713 52.0839C42.6417 52.1052 42.5194 52.0174 42.4982 51.8878C42.4769 51.7582 42.5647 51.6359 42.6944 51.6147C42.8239 51.5934 42.9462 51.6813 42.9675 51.8108C42.9887 51.9404 42.9009 52.0627 42.7713 52.0839Z" fill="white"/>
<path d="M41.021 60.4465C41.07 60.4356 41.1206 60.4238 41.1714 60.411C42.0583 60.1904 42.8004 59.7831 43.3815 59.2L43.3923 59.1893L43.4067 59.1747C43.4154 59.1658 43.4241 59.157 43.4327 59.1481L43.4346 59.1461C43.4602 59.1197 43.486 59.0924 43.5111 59.065L43.5192 59.056C43.5292 59.0452 43.5392 59.0343 43.549 59.0233L43.5685 59.001C43.5745 58.9944 43.5804 58.9877 43.5862 58.9812C43.5962 58.9697 43.606 58.9582 43.6158 58.9467L43.6227 58.9387C43.8157 58.7118 44.005 58.4734 44.1269 58.2027C44.5615 57.2373 44.2838 55.8489 44.205 55.547C44.205 55.547 44.1687 55.2908 43.5694 55.7238L43.5673 55.7251C42.7085 56.292 41.6597 56.7224 40.5284 56.9707C40.0061 57.0854 39.479 57.1575 38.961 57.1852C38.2253 57.2245 37.532 57.175 36.8989 57.0383L36.6792 56.9912L36.6794 56.9924C36.4967 56.9513 36.317 56.905 36.1434 56.8509C35.8719 56.7666 35.9398 57.1423 35.9398 57.1423C36.0205 57.5961 36.2758 58.5482 37.0487 59.3736C37.2604 59.6001 37.4989 59.7993 37.758 59.9663C38.1706 60.2344 38.631 60.4165 39.1272 60.5073C39.6957 60.6124 40.315 60.5958 40.9704 60.4576C40.9875 60.454 41.0042 60.4502 41.021 60.4465Z" fill="#6CFF9D"/>
<path d="M41.0308 60.569C41.0788 60.5584 41.1284 60.5467 41.1782 60.5342C42.0471 60.3174 42.7734 59.9136 43.3413 59.3333L43.3518 59.3227L43.3658 59.3081C43.3744 59.2993 43.3829 59.2906 43.3913 59.2818L43.3931 59.2797C43.4182 59.2534 43.4433 59.2263 43.4679 59.199L43.4758 59.1901C43.4856 59.1792 43.4953 59.1683 43.5049 59.1573L43.524 59.1354C43.5298 59.1288 43.5355 59.1221 43.5412 59.1155C43.551 59.1041 43.5605 59.0927 43.5701 59.0812L43.5769 59.0732C43.7654 58.8473 43.9417 58.6057 44.0689 58.3398C44.5445 57.345 44.2235 56.0165 44.1308 55.7052C44.0862 55.5558 43.9608 55.5354 43.514 55.8603L43.512 55.8616C42.6718 56.4245 41.6448 56.8501 40.5364 57.0935C40.0246 57.206 39.508 57.2759 39.0001 57.3013C38.2789 57.3376 37.5988 57.2852 36.9774 57.146L36.7619 57.0981L36.7621 57.0992C36.5827 57.0574 36.4063 57.0104 36.236 56.9556C35.9693 56.8702 36.0371 57.2459 36.0371 57.2459C36.1179 57.6996 36.3714 58.6522 37.1322 59.4802C37.3404 59.7073 37.5749 59.9075 37.8296 60.0754C38.235 60.3449 38.6871 60.5288 39.174 60.6217C39.7318 60.7292 40.3391 60.7151 40.9813 60.5798C40.998 60.5763 41.0144 60.5727 41.0308 60.569Z" fill="#007C29"/>
<path d="M36.1813 57.0585C36.1883 57.0535 36.2917 58.2724 37.2418 59.3043C37.9305 60.0613 39.1392 60.7409 40.9724 60.355C42.6045 60.0092 43.5268 59.0816 43.9718 58.1926C44.4398 57.2575 44.0136 55.6966 44.0252 55.6995C43.9268 55.7509 43.8978 55.7739 43.6022 55.964C41.7601 57.2051 39.0603 57.7391 36.9775 57.2664C36.701 57.2102 36.4341 57.1402 36.1813 57.0585Z" fill="#006622"/>
<path d="M36.9775 57.2664C37.0165 57.4394 37.0617 57.6126 37.1064 57.7704C37.2064 58.1264 37.3066 58.4027 37.3351 58.4164C39.7927 59.4301 41.6885 58.7832 43.527 57.5637C43.5766 57.5278 43.6236 56.8684 43.6102 56.2296C43.6084 56.1402 43.6057 56.051 43.6022 55.964C41.7601 57.2051 39.0603 57.7391 36.9775 57.2664Z" fill="#E2E2E2"/>
<path d="M37.1064 57.7704C37.2064 58.1264 37.3066 58.4027 37.3351 58.4164C39.7927 59.4301 41.6885 58.7832 43.527 57.5637C43.5766 57.5278 43.6236 56.8684 43.6102 56.2296C41.7803 57.4905 39.1825 58.1088 37.1064 57.7704Z" fill="#F9F9F9"/>
<path d="M37.2106 59.1206C37.2192 59.1785 37.2297 59.24 37.2418 59.3043C37.9305 60.0613 39.1392 60.7409 40.9724 60.355C42.6047 60.0089 43.5097 59.0729 43.9718 58.1926C43.9696 58.172 43.9672 58.1523 43.9645 58.1331C43.9639 58.1281 43.9632 58.123 43.9626 58.118C43.932 57.8774 43.8888 57.6825 43.833 57.5889C42.3554 58.829 38.9344 59.3348 37.1903 58.6838C37.1754 58.7518 37.1782 58.8616 37.1943 58.9988C37.1983 59.0373 37.2038 59.078 37.2106 59.1206Z" fill="#E2E2E2"/>
<path d="M37.1943 58.9988C37.8937 59.7271 39.087 60.3676 40.8847 60.062C42.4898 59.788 43.4404 58.9464 43.9626 58.118C43.932 57.8774 43.8888 57.6825 43.833 57.5889C42.3554 58.829 38.9344 59.3348 37.1903 58.6838C37.1754 58.7518 37.1782 58.8616 37.1943 58.9988Z" fill="#F9F9F9"/>
<path d="M33.7556 55.2357C34.7491 56.7716 36.7994 57.2113 38.3351 56.218C39.4958 55.4672 40.0303 54.1128 39.7934 52.8329C39.7168 52.4194 39.5598 52.0137 39.3171 51.6385C38.3238 50.1027 36.2734 49.6631 34.7378 50.6563C33.5341 51.4349 33.0039 52.8625 33.3087 54.183C33.3929 54.5473 33.5408 54.9037 33.7556 55.2357Z" fill="#52D17C"/>
<path d="M33.7556 55.2357C34.7491 56.7716 36.7994 57.2113 38.3351 56.218C39.4958 55.4672 40.0303 54.1128 39.7934 52.8329C39.7094 52.4676 39.5614 52.1104 39.3459 51.7773C38.3526 50.2416 36.3025 49.8017 34.7666 50.7953C33.6051 51.5465 33.0706 52.9024 33.3087 54.183C33.3929 54.5473 33.5408 54.9037 33.7556 55.2357Z" fill="#6CFF9D"/>
<path d="M34.1556 55.2077C35.0688 56.6195 36.9535 57.0238 38.3653 56.1106C39.7771 55.1974 40.1813 53.3127 39.2681 51.9009C38.3549 50.4891 36.4702 50.0849 35.0584 50.9981C33.6466 51.9112 33.2424 53.7959 34.1556 55.2077Z" fill="#007C29"/>
<path d="M38.3032 56.044C36.9539 56.9033 35.1637 56.5058 34.3044 55.1567C33.7226 54.2431 33.7167 53.1273 34.1929 52.2354C34.4194 51.8099 34.7561 51.4354 35.1915 51.1581C36.5407 50.2988 38.3311 50.6959 39.1903 52.045C39.4675 52.4801 39.6137 52.961 39.6396 53.4419C39.6943 54.4521 39.2174 55.4618 38.3032 56.044Z" fill="#B7B7B7"/>
<path d="M38.3215 55.8063C36.9947 56.6513 35.2337 56.2607 34.3885 54.9336C33.8538 54.0939 33.8138 53.0804 34.1929 52.2354C34.4194 51.8099 34.7561 51.4354 35.1915 51.1581C36.5407 50.2988 38.3311 50.6959 39.1903 52.045C39.4675 52.4801 39.6137 52.961 39.6396 53.4419C39.6265 54.369 39.1618 55.2711 38.3215 55.8063Z" fill="white"/>
<path d="M37.5983 54.9193C36.887 55.3723 35.943 55.1629 35.49 54.4515C35.0369 53.7402 35.2464 52.7961 35.9577 52.3431C36.6691 51.89 37.6131 52.0994 38.0662 52.8108C38.5192 53.5222 38.3098 54.4662 37.5983 54.9193Z" fill="#020202"/>
<path d="M37.4004 52.7325C37.119 52.9117 36.7458 52.8289 36.5665 52.5475C36.3874 52.2661 36.4702 51.8929 36.7516 51.7137C37.0329 51.5344 37.4062 51.6173 37.5853 51.8987C37.7646 52.18 37.6818 52.5533 37.4004 52.7325Z" fill="white"/>
<path d="M36.7724 53.2253C36.6472 53.3051 36.4808 53.2683 36.401 53.1431C36.3214 53.0177 36.3582 52.8514 36.4835 52.7716C36.6088 52.6918 36.775 52.7287 36.8548 52.854C36.9346 52.9794 36.8977 53.1455 36.7724 53.2253Z" fill="white"/>
<path d="M37.6233 63.1201C37.9394 64.4141 38.1866 65.9653 38.169 67.3197C38.2361 67.335 38.3035 67.35 38.3706 67.3646C40.3196 67.7904 42.2921 67.9666 44.2188 67.7888C44.263 67.7849 44.3068 67.7806 44.3509 67.776C44.616 66.0796 44.7749 64.2736 44.8068 62.4498C44.8014 62.4515 44.7963 62.453 44.7909 62.4543C42.8557 63.0051 40.7932 63.1338 38.7859 62.8401C38.4189 62.7864 38.0538 62.7187 37.6918 62.6368C37.621 62.621 37.5502 62.6043 37.4798 62.5872C37.532 62.7654 37.58 62.9432 37.6233 63.1201Z" fill="#007C29"/>
<path d="M37.3346 70.1674C37.3584 71.1942 37.9177 72.2075 38.9154 72.8971C39.8189 73.5212 41.2395 73.8088 42.3904 73.5234C42.4476 73.4273 42.5039 73.33 42.5589 73.2318C42.5656 73.2196 42.5725 73.2074 42.5792 73.1953C41.4898 73.1676 40.2714 72.9132 39.3287 72.254C38.386 71.5946 37.8822 70.7876 37.5997 69.8433C37.5607 69.9028 37.5195 69.9597 37.4758 70.0132C37.4312 70.068 37.3843 70.1195 37.3346 70.1674Z" fill="#007D2A"/>
<path d="M33.2343 76.0126C33.2344 76.0127 33.2341 76.0126 33.2343 76.0126C33.3746 76.11 33.5135 76.1985 33.6514 76.2792C33.2596 75.2268 33.0169 73.9017 33.2884 72.6837C33.5797 71.3777 34.2387 70.5344 35.1377 69.8478C35.1232 69.8326 35.1089 69.8171 35.0942 69.8016C33.9055 70.0208 32.922 71.0779 32.5995 72.5608C32.3639 73.6438 32.596 75.0722 33.2343 76.0126Z" fill="#007D2A"/>
<path d="M29.3849 71.9122C29.4397 71.9434 29.4947 71.979 29.55 72.0184C29.2431 70.966 29.1146 69.6286 29.5485 68.4996C29.9764 67.3863 30.7016 66.7358 31.639 66.2659C31.6008 66.2418 31.5627 66.2181 31.5243 66.1952C30.3823 66.2503 29.3552 67.0322 28.8861 68.274C28.4762 69.3588 28.6241 70.9619 29.3849 71.9122Z" fill="#007D2A"/>
<path d="M24.3673 71.8969C24.9027 72.7316 26.09 73.4335 27.1778 73.4078C27.2071 73.3647 27.2362 73.322 27.2651 73.2797C26.3817 72.9501 25.4354 72.3743 24.9012 71.5306C24.3765 70.7014 24.2914 69.8913 24.4386 69.0316C24.3147 69.2892 24.1979 69.5529 24.0879 69.8203C24.0455 69.9232 23.9822 70.0848 23.9013 70.2791C23.9011 70.2793 23.9011 70.28 23.9013 70.2802C23.9011 70.2803 23.9011 70.28 23.9013 70.2802C23.8848 70.8215 24.0373 71.3826 24.3673 71.8969Z" fill="#007D2A"/>
<path d="M21.3458 76.8826C21.4258 76.9077 21.5063 76.9304 21.5873 76.9509C21.1114 76.2847 20.7018 75.3931 20.7326 74.5115C20.7636 73.6188 21.1301 72.9811 21.6978 72.4201C21.6716 72.4099 21.6448 72.3992 21.6179 72.3878C20.7821 72.6998 20.2178 73.5097 20.1886 74.5127C20.1647 75.3326 20.6224 76.3584 21.3458 76.8826Z" fill="#007D2A"/>
<path d="M15.9998 72.2618C16.0065 73.0226 16.3992 73.9479 16.9969 74.4592C17.072 74.4523 17.1481 74.4531 17.2258 74.4623C16.8223 73.8429 16.4838 73.0443 16.4808 72.2402C16.4781 71.4308 16.7351 70.8238 17.1537 70.2855C17.0608 70.2882 16.9687 70.2959 16.8779 70.3079C16.3306 70.7113 15.9925 71.4254 15.9998 72.2618Z" fill="#007D2A"/>
<path d="M12.4426 74.9618C12.6168 75.6303 13.202 76.3611 13.8613 76.6111C13.8972 76.5934 13.9328 76.575 13.9684 76.5561C13.4867 76.1303 13.0117 75.5275 12.8374 74.8439C12.6813 74.2322 12.7454 73.7158 12.9435 73.2243C12.7647 73.4269 12.6042 73.6039 12.463 73.7389C12.3424 74.1037 12.3293 74.5272 12.4426 74.9618Z" fill="#007D2A"/>
<path d="M36.5557 61.968C36.5586 61.9822 36.5616 61.9905 36.5616 61.9905C36.5617 61.9932 36.5619 61.9962 36.5621 61.9989C36.5841 62.0457 36.606 62.0925 36.6276 62.1392C36.646 62.1788 36.6643 62.2186 36.6825 62.2582C36.7002 62.2967 36.7176 62.3352 36.7351 62.3737C36.7385 62.3815 36.7419 62.3892 36.7456 62.397C36.7635 62.4368 36.7814 62.4769 36.7988 62.5167C36.8159 62.555 36.8329 62.5935 36.8494 62.6317C36.8661 62.67 36.8827 62.7084 36.8991 62.7467C37.1181 63.2603 37.3062 63.7686 37.4409 64.2693C37.4818 64.4214 37.5213 64.5773 37.5587 64.7363C37.5637 64.7572 37.5685 64.778 37.5734 64.7991C37.5994 64.9114 37.6244 65.025 37.6482 65.1398C37.6532 65.1637 37.6582 65.1878 37.6631 65.212C37.6732 65.262 37.6831 65.3122 37.6927 65.3626C37.7125 65.4655 37.7314 65.5691 37.7489 65.6732C37.7548 65.7078 37.7607 65.7425 37.7662 65.7773C37.7716 65.8103 37.7769 65.8432 37.7819 65.8763C37.7822 65.8781 37.7824 65.8801 37.7827 65.8818C37.7827 65.882 37.7827 65.8816 37.7827 65.8818C37.7829 65.8823 37.7829 65.8827 37.7829 65.8832C37.7831 65.8842 37.7833 65.8852 37.7835 65.8863C37.7896 65.927 37.7959 65.9678 37.8016 66.0084C37.8077 66.0505 37.8136 66.0927 37.8193 66.135C37.8195 66.1362 37.8196 66.1374 37.8198 66.1385C37.8254 66.1795 37.8307 66.2207 37.8357 66.2619C37.841 66.3042 37.846 66.3464 37.8509 66.3887C37.8641 66.5058 37.8759 66.6229 37.8857 66.7397C37.8876 66.7612 37.8893 66.7829 37.8909 66.8045C37.8933 66.8345 37.8955 66.8644 37.8976 66.8942C37.9114 66.8975 37.925 66.9009 37.9388 66.904C37.9492 66.9064 37.9594 66.9089 37.9697 66.9113C38.0089 66.9205 38.048 66.9297 38.0871 66.9387C38.1346 66.9497 38.182 66.9606 38.2294 66.9711C38.27 66.9802 38.3103 66.9892 38.3508 66.998C38.3993 67.0089 38.4479 67.0192 38.4964 67.0295C38.5464 67.0403 38.5964 67.0508 38.6463 67.0609C38.6935 67.0708 38.7408 67.0803 38.7879 67.0896C38.792 67.0907 38.7962 67.0913 38.8003 67.0922C38.8336 67.0988 38.8669 67.1053 38.9 67.1116C38.9193 67.1156 38.9386 67.1193 38.9579 67.123C39.0041 67.1319 39.0504 67.1406 39.0966 67.1491C39.1437 67.1579 39.1909 67.1665 39.238 67.175C39.2418 67.1756 39.2456 67.1763 39.2494 67.1771C39.2985 67.1856 39.3479 67.1943 39.397 67.2027C39.4836 67.2176 39.5704 67.2319 39.6569 67.2457C39.6779 67.2491 39.699 67.2524 39.72 67.2557C39.7626 67.2625 39.8054 67.269 39.848 67.2752C39.8982 67.2827 39.9484 67.29 39.9984 67.2972C40.0486 67.3043 40.0988 67.3114 40.1488 67.3181C40.199 67.3249 40.2492 67.3316 40.2994 67.3379C40.3494 67.3443 40.3995 67.3506 40.4497 67.3566C40.4982 67.3625 40.5465 67.3681 40.595 67.3734C40.597 67.3738 40.5991 67.3742 40.601 67.3743C40.6508 67.3799 40.7007 67.3854 40.7505 67.3905C40.8007 67.3959 40.8507 67.4009 40.9009 67.4059C40.9511 67.4107 41.0011 67.4154 41.0513 67.4199C41.1981 67.4331 41.3448 67.4447 41.4914 67.4545C41.4985 67.455 41.5054 67.4554 41.5123 67.4559C41.7593 67.4721 42.0061 67.4834 42.2525 67.4897C42.5364 67.497 42.8198 67.4975 43.1024 67.4907C43.1045 67.4907 43.1067 67.4907 43.1088 67.4905C43.2399 67.4875 43.3709 67.4828 43.5018 67.4766C43.5062 67.4764 43.5105 67.4762 43.5146 67.4761C43.6017 67.4718 43.6886 67.4669 43.7755 67.4614C43.8201 67.4587 43.8647 67.4555 43.9092 67.4523C44.0429 67.4427 44.1764 67.4312 44.3095 67.4181C44.4871 67.4007 44.6644 67.3804 44.8412 67.3568C44.85 67.3076 44.8588 67.2585 44.8674 67.2091C44.8731 67.1772 44.8786 67.1454 44.884 67.1132C44.8888 67.085 44.8936 67.0565 44.8985 67.028C44.8999 67.0201 44.9011 67.0121 44.9024 67.0042C44.9088 66.9661 44.9152 66.9278 44.9214 66.8896C44.929 66.8433 44.9364 66.7971 44.9437 66.7507C44.9571 66.6667 44.9699 66.5824 44.9823 66.4979C44.9906 66.4427 44.9987 66.3875 45.0064 66.3321C45.0106 66.3028 45.0147 66.2733 45.0188 66.2438C45.0278 66.1798 45.0364 66.1156 45.0449 66.0513C45.0504 66.0091 45.0559 65.9667 45.0614 65.9242C45.0621 65.9175 45.063 65.9108 45.064 65.9039C45.0695 65.8592 45.0751 65.8142 45.0806 65.7694C45.0863 65.7223 45.092 65.6752 45.0973 65.628C45.1011 65.5962 45.1047 65.5645 45.1082 65.5326C45.1122 65.4983 45.1161 65.4637 45.1197 65.4294C45.1215 65.4133 45.1234 65.3968 45.1249 65.3806C45.1284 65.3507 45.1315 65.3206 45.1344 65.2906C45.1384 65.2531 45.1423 65.2156 45.1459 65.1778C45.1499 65.1392 45.1537 65.1007 45.1573 65.0621C45.1913 64.7065 45.2186 64.349 45.2387 63.9902C45.2412 63.9509 45.2432 63.9114 45.2453 63.8719C45.2455 63.8671 45.2458 63.8622 45.246 63.8575C45.248 63.8204 45.2498 63.7831 45.2517 63.7457C45.2534 63.709 45.2549 63.6722 45.2567 63.6355C45.2568 63.6302 45.257 63.6252 45.2574 63.6198C45.2587 63.5849 45.2601 63.5501 45.2615 63.5153C45.2629 63.4827 45.2641 63.4502 45.2651 63.4177C45.2655 63.4092 45.2658 63.4006 45.266 63.3919C45.2674 63.3564 45.2686 63.3207 45.2694 63.2852C45.2708 63.2447 45.272 63.204 45.2729 63.1632C45.2739 63.1255 45.2749 63.0878 45.2757 63.0499C45.2767 63.0044 45.2776 62.9588 45.2782 62.913C45.2791 62.87 45.2796 62.8271 45.2801 62.7842C45.2808 62.7326 45.2813 62.681 45.2815 62.6293C45.2818 62.5788 45.282 62.5281 45.282 62.4775V62.4703C45.282 62.2949 45.2803 62.1194 45.2767 61.9443C43.2031 62.6183 40.9621 62.7962 38.7858 62.4778C38.7506 62.4727 38.7156 62.4675 38.6804 62.462C38.6454 62.4567 38.6102 62.4512 38.5752 62.4455C38.4806 62.4303 38.3858 62.4141 38.2915 62.3969C38.2691 62.3929 38.2468 62.3888 38.2246 62.3846C38.2224 62.3842 38.2201 62.3837 38.2181 62.3834C38.1723 62.3748 38.1268 62.366 38.0811 62.357C38.0592 62.3527 38.0373 62.3484 38.0156 62.3439C37.99 62.3389 37.9647 62.3335 37.9395 62.3284C37.9078 62.3218 37.876 62.3151 37.8443 62.3084C37.8066 62.3002 37.7688 62.2919 37.7312 62.2835C37.6641 62.2685 37.597 62.2531 37.5303 62.2371C37.5275 62.2365 37.5247 62.2357 37.522 62.2352C37.4901 62.2276 37.4583 62.2199 37.4266 62.2121C37.3229 62.1866 37.2197 62.1599 37.1167 62.1321C37.1058 62.1292 37.0948 62.1262 37.0839 62.1232C37.0682 62.119 37.0523 62.1146 37.0365 62.1102C36.9906 62.0976 36.9446 62.0845 36.8987 62.0714C36.8758 62.0648 36.8528 62.0581 36.8299 62.0514C36.785 62.0383 36.7402 62.0248 36.6954 62.0114C36.6486 61.9972 36.6021 61.9827 36.5557 61.968Z" fill="#52D17C"/>
<path d="M36.7988 62.5167C36.8159 62.555 36.8329 62.5935 36.8494 62.6317C36.8661 62.67 36.8827 62.7084 36.8991 62.7467C37.1181 63.2603 37.3062 63.7686 37.4409 64.2693C37.4818 64.4214 37.5213 64.5773 37.5587 64.7363C37.5637 64.7572 37.5685 64.778 37.5734 64.7991C37.5994 64.9114 37.6244 65.025 37.6482 65.1398C37.6532 65.1637 37.6582 65.1878 37.6631 65.212C37.6732 65.262 37.6831 65.3122 37.6927 65.3626C37.7125 65.4655 37.7314 65.5691 37.7489 65.6732C37.7548 65.7078 37.7607 65.7425 37.7662 65.7773C37.7716 65.8103 37.7769 65.8432 37.7819 65.8763C37.7822 65.8781 37.7824 65.8801 37.7827 65.8818C37.7827 65.882 37.7827 65.8816 37.7827 65.8818C37.7829 65.8823 37.7829 65.8827 37.7829 65.8832C37.8469 66.2191 37.9002 66.5622 37.9388 66.904C37.9492 66.9064 37.9594 66.9089 37.9697 66.9113C38.0089 66.9205 38.048 66.9297 38.0871 66.9387C38.1346 66.9497 38.182 66.9606 38.2294 66.9711C38.27 66.9802 38.3103 66.9892 38.3508 66.998C38.3993 67.0089 38.4479 67.0192 38.4964 67.0295C38.5464 67.0403 38.5964 67.0508 38.6463 67.0609C38.6935 67.0708 38.7408 67.0803 38.7879 67.0896C38.792 67.0907 38.7962 67.0913 38.8003 67.0922C38.8336 67.0988 38.8669 67.1053 38.9 67.1116C38.9193 67.1156 38.9386 67.1193 38.9579 67.123C39.0041 67.1319 39.0504 67.1406 39.0966 67.1491C39.1437 67.1579 39.1909 67.1665 39.238 67.175C39.2418 67.1756 39.2456 67.1763 39.2494 67.1771C39.2985 67.1856 39.3479 67.1943 39.397 67.2027C39.4836 67.2176 39.5704 67.2319 39.6569 67.2457C39.6779 67.2491 39.699 67.2524 39.72 67.2557C39.7626 67.2625 39.8054 67.269 39.848 67.2752C39.8982 67.2827 39.9484 67.29 39.9984 67.2972C40.0486 67.3043 40.0988 67.3114 40.1488 67.3181C40.199 67.3249 40.2492 67.3316 40.2994 67.3379C40.3494 67.3443 40.3995 67.3506 40.4497 67.3566C40.4982 67.3625 40.5465 67.3681 40.595 67.3734C40.597 67.3738 40.5991 67.3742 40.601 67.3743C40.6508 67.3799 40.7007 67.3854 40.7505 67.3905C40.8007 67.3959 40.8507 67.4009 40.9009 67.4059C40.9511 67.4107 41.0011 67.4154 41.0513 67.4199C41.1981 67.4331 41.3448 67.4447 41.4914 67.4545C41.4985 67.455 41.5054 67.4554 41.5123 67.4559C41.7593 67.4721 42.0061 67.4834 42.2525 67.4897C42.5364 67.497 42.8198 67.4975 43.1024 67.4907C43.1045 67.4907 43.1067 67.4907 43.1088 67.4905C43.2399 67.4875 43.3709 67.4828 43.5018 67.4766C43.5062 67.4764 43.5105 67.4762 43.5146 67.4761C43.6017 67.4718 43.6886 67.4669 43.7755 67.4614C43.8201 67.4587 43.8647 67.4555 43.9092 67.4523C44.0429 67.4427 44.1764 67.4312 44.3095 67.4181C44.4871 67.4007 44.6644 67.3804 44.8412 67.3568C44.85 67.3076 44.8588 67.2585 44.8674 67.2091C44.8731 67.1772 44.8786 67.1454 44.884 67.1132C44.8888 67.085 44.8936 67.0565 44.8985 67.028C44.8999 67.0201 44.9011 67.0121 44.9024 67.0042C44.9088 66.9661 44.9152 66.9278 44.9214 66.8896C44.929 66.8433 44.9364 66.7971 44.9437 66.7507C44.9571 66.6667 44.9699 66.5824 44.9823 66.4979C44.9906 66.4427 44.9987 66.3875 45.0064 66.3321C45.0106 66.3028 45.0147 66.2733 45.0188 66.2438C45.0278 66.1798 45.0364 66.1156 45.0449 66.0513C45.0504 66.0091 45.0559 65.9667 45.0614 65.9242C45.0621 65.9175 45.063 65.9108 45.064 65.9039C45.0695 65.8592 45.0751 65.8142 45.0806 65.7694C45.0858 65.7269 45.0908 65.6848 45.0956 65.6422C45.0963 65.6375 45.0968 65.6326 45.0973 65.628C45.1011 65.5962 45.1047 65.5645 45.1082 65.5326C45.1106 65.5115 45.113 65.4906 45.1153 65.4695C45.1168 65.4563 45.1184 65.4428 45.1197 65.4294C45.1215 65.4133 45.1234 65.3968 45.1249 65.3806C45.1284 65.3507 45.1315 65.3206 45.1344 65.2906C45.1384 65.2531 45.1423 65.2156 45.1459 65.1778C45.1499 65.1392 45.1537 65.1007 45.1573 65.0621C45.1913 64.7065 45.2186 64.349 45.2387 63.9902C45.2412 63.9509 45.2432 63.9114 45.2453 63.8719C45.2455 63.8671 45.2458 63.8622 45.246 63.8575C45.248 63.8204 45.2498 63.7831 45.2517 63.7457C45.2534 63.709 45.2549 63.6722 45.2567 63.6355C45.2568 63.6302 45.257 63.6252 45.2574 63.6198C45.2587 63.5849 45.2601 63.5501 45.2615 63.5153C45.2629 63.4827 45.2641 63.4502 45.2651 63.4177C45.2655 63.4092 45.2658 63.4006 45.266 63.3919C45.2674 63.3564 45.2686 63.3207 45.2694 63.2852C45.2708 63.2447 45.272 63.204 45.2729 63.1632C45.2739 63.1255 45.2749 63.0878 45.2757 63.0499C45.2767 63.0044 45.2776 62.9588 45.2782 62.913C45.2791 62.87 45.2796 62.8271 45.2801 62.7842C45.2808 62.7326 45.2813 62.681 45.2815 62.6293C45.2818 62.5788 45.282 62.5281 45.282 62.4775V62.4703C45.1874 62.5005 45.0923 62.5296 44.997 62.5576C43.1166 63.1115 41.1117 63.2642 39.1509 63.0161C39.0579 63.0043 38.9648 62.9917 38.872 62.9782C38.8614 62.9766 38.8505 62.975 38.8398 62.9733C38.7715 62.9633 38.7035 62.9525 38.6354 62.9414C38.2003 62.8705 37.7683 62.7796 37.3411 62.6687C37.295 62.6568 37.249 62.6448 37.2029 62.6323C37.0677 62.5959 36.933 62.5572 36.7988 62.5167Z" fill="#1F9B48"/>
<path d="M37.3411 62.6687C37.516 63.0492 37.8854 63.4596 38.4514 63.8528C39.5236 64.605 41.3262 65.2933 43.4349 65.4465C44.0141 65.4949 44.5775 65.5001 45.1153 65.4695C45.1168 65.4563 45.1184 65.4428 45.1197 65.4294C45.1215 65.4133 45.1234 65.3968 45.1249 65.3806C45.1284 65.3507 45.1315 65.3206 45.1344 65.2906C45.1384 65.2531 45.1423 65.2156 45.1459 65.1778C45.1499 65.1392 45.1537 65.1007 45.1573 65.0621C45.1913 64.7065 45.2186 64.349 45.2387 63.9902C45.2412 63.9509 45.2432 63.9114 45.2453 63.8719C45.2455 63.8671 45.2458 63.8622 45.246 63.8575C45.248 63.8204 45.2498 63.7831 45.2517 63.7457C45.2534 63.709 45.2549 63.6722 45.2567 63.6355C45.2568 63.6302 45.257 63.6252 45.2574 63.6198C45.2587 63.5849 45.2601 63.5501 45.2615 63.5153C45.2629 63.4827 45.2641 63.4502 45.2651 63.4177C45.2655 63.4092 45.2658 63.4006 45.266 63.3919C45.2674 63.3564 45.2686 63.3207 45.2694 63.2852C45.2708 63.2447 45.272 63.204 45.2729 63.1632C45.2739 63.1255 45.2749 63.0878 45.2757 63.0499C45.2767 63.0044 45.2776 62.9588 45.2782 62.913C45.2791 62.87 45.2796 62.8271 45.2801 62.7842C45.2808 62.7326 45.2813 62.681 45.2815 62.6293C45.2818 62.5788 45.282 62.5281 45.282 62.4775V62.4703C45.1874 62.5005 45.0923 62.5296 44.997 62.5576C43.1166 63.1115 41.1117 63.2642 39.1509 63.0161C39.0579 63.0043 38.9648 62.9917 38.872 62.9782C38.8614 62.9766 38.8505 62.975 38.8398 62.9733C38.7715 62.9633 38.7035 62.9525 38.6354 62.9414C38.2003 62.8705 37.7683 62.7796 37.3411 62.6687Z" fill="#52D17C"/>
</svg>
